<svg width="64" height="64" viewBox="0 0 64 64" fill="none" xmlns="http://www.w3.org/2000/svg">
<g clip-path="url(#clip0_29_26858)">
<path d="M62.9944 39.7878C58.7206 56.9309 41.3575 67.3638 24.2124 63.0888C7.07454 58.815 -3.35837 41.4508 0.917337 24.3092C5.18929 7.16428 22.5524 -3.26941 39.6921 1.00442C56.8359 5.27825 67.2682 22.6443 62.9939 39.7881L62.9942 39.7878H62.9944Z" fill="#F7931A"/>
<path d="M46.1107 27.4409C46.7477 23.1824 43.5055 20.8933 39.0722 19.3662L40.5104 13.5977L36.9989 12.7227L35.5988 18.3394C34.6757 18.1091 33.7277 17.8922 32.7854 17.6771L34.1957 12.0234L30.6864 11.1484L29.2474 16.9151C28.4835 16.7411 27.7331 16.5692 27.0052 16.3881L27.0093 16.37L22.1669 15.1607L21.2328 18.9112C21.2328 18.9112 23.838 19.5084 23.7831 19.5452C25.205 19.9001 25.4622 20.8414 25.4195 21.5874L23.7812 28.1591C23.8791 28.184 24.0061 28.22 24.1463 28.2763C24.0291 28.2472 23.9045 28.2154 23.7751 28.1845L21.4788 37.3905C21.305 37.8225 20.864 38.4708 19.8698 38.2246C19.905 38.2756 17.3176 37.5877 17.3176 37.5877L15.5742 41.6072L20.1438 42.7464C20.9939 42.9596 21.827 43.1826 22.6474 43.3924L21.1943 49.227L24.7017 50.102L26.1407 44.3293C27.0989 44.5894 28.0288 44.8293 28.9391 45.0555L27.5049 50.801L31.0166 51.676L32.4695 45.8523C38.4573 46.9855 42.9596 46.5286 44.8547 41.1126C46.3818 36.7522 44.7787 34.237 41.6286 32.5969C43.923 32.0677 45.6512 30.5587 46.112 27.4414L46.1109 27.4406L46.1107 27.4409ZM38.0878 38.6911C37.0027 43.0515 29.6609 40.6944 27.2806 40.1033L29.2089 32.3734C31.589 32.9676 39.222 34.1435 38.088 38.6911H38.0878ZM39.1738 27.3777C38.1839 31.344 32.0733 29.329 30.0911 28.8348L31.8393 21.8243C33.8215 22.3184 40.2051 23.2406 39.1741 27.3777H39.1738Z" fill="white"/>
</g>
<defs>
<clipPath id="clip0_29_26858">
<rect width="64" height="64" fill="white"/>
</clipPath>
</defs>
</svg>
